<svg width="80" height="80" viewBox="0 0 80 80" fill="none" xmlns="http://www.w3.org/2000/svg">
<g clip-path="url(#clip0_69_147)">
<path d="M80 40C80 17.9086 62.0914 0 40 0C17.9086 0 0 17.9086 0 40C0 62.0914 17.9086 80 40 80C62.0914 80 80 62.0914 80 40Z" fill="#EFF5FF"/>
<path d="M40 62.8571C52.6237 62.8571 62.8572 52.6236 62.8572 40C62.8572 27.3763 52.6237 17.1429 40 17.1429C27.3764 17.1429 17.1429 27.3763 17.1429 40C17.1429 52.6236 27.3764 62.8571 40 62.8571Z" fill="#D5E5FF"/>
<path d="M40.7617 52.1904C47.0735 52.1904 52.1903 47.0737 52.1903 40.7619C52.1903 34.45 47.0735 29.3333 40.7617 29.3333C34.4499 29.3333 29.3331 34.45 29.3331 40.7619C29.3331 47.0737 34.4499 52.1904 40.7617 52.1904Z" fill="#4285F4"/>
</g>
<defs>
<clipPath id="clip0_69_147">
<rect width="80" height="80" fill="white"/>
</clipPath>
</defs>
</svg>
