<svg width="20" height="20" viewBox="0 0 20 20" fill="none" xmlns="http://www.w3.org/2000/svg">
<path d="M10.0009 2.5L16.4959 6.25V12.7875C16.4959 13.0801 16.4188 13.3675 16.2726 13.6208C16.1263 13.8742 15.9159 14.0846 15.6625 14.2308L10.8342 17.0192C10.5808 17.1654 10.2934 17.2425 10.0009 17.2425C9.7083 17.2425 9.42089 17.1654 9.16753 17.0192L4.33919 14.2308C4.08583 14.0846 3.87544 13.8742 3.72916 13.6208C3.58288 13.3675 3.50587 13.0801 3.50586 12.7875V6.25L10.0009 2.5Z" stroke="#80889B" stroke-width="1.5" stroke-linecap="round" stroke-linejoin="round"/>
<path d="M10.0009 5.83331V9.99998M10.0009 9.99998L6.39258 12.0833M10.0009 9.99998L13.6092 12.0833" stroke="#80889B" stroke-width="1.5" stroke-linecap="round" stroke-linejoin="round"/>
</svg>
