<svg width="7" height="12" viewBox="0 0 7 12" fill="none" xmlns="http://www.w3.org/2000/svg">
<path d="M2.8008 6.00005L6.7008 9.90005C6.88413 10.0834 6.9758 10.3167 6.9758 10.6C6.9758 10.8834 6.88413 11.1167 6.7008 11.3C6.51746 11.4834 6.28413 11.575 6.0008 11.575C5.71746 11.575 5.48413 11.4834 5.3008 11.3L0.700796 6.70005C0.600796 6.60005 0.53013 6.49172 0.488796 6.37505C0.447463 6.25838 0.426463 6.13338 0.425797 6.00005C0.42513 5.86672 0.44613 5.74172 0.488796 5.62505C0.531463 5.50838 0.60213 5.40005 0.700796 5.30005L5.3008 0.700048C5.48413 0.516715 5.71746 0.425049 6.0008 0.425049C6.28413 0.425049 6.51746 0.516715 6.7008 0.700048C6.88413 0.883382 6.9758 1.11672 6.9758 1.40005C6.9758 1.68338 6.88413 1.91672 6.7008 2.10005L2.8008 6.00005Z" fill="#80889B"/>
</svg>
