<svg width="24" height="24" viewBox="0 0 24 24" fill="none" xmlns="http://www.w3.org/2000/svg">
<path d="M12.0008 8C13.9674 8 15.9049 8.39583 17.8133 9.1875C19.7216 9.97917 21.4174 11.1667 22.9008 12.75C23.1008 12.95 23.2008 13.1833 23.2008 13.45C23.2008 13.7167 23.1008 13.95 22.9008 14.15L20.6008 16.4C20.4174 16.5833 20.2049 16.6833 19.9633 16.7C19.7216 16.7167 19.5008 16.65 19.3008 16.5L16.4008 14.3C16.2674 14.2 16.1674 14.0833 16.1008 13.95C16.0341 13.8167 16.0008 13.6667 16.0008 13.5V10.65C15.3674 10.45 14.7174 10.2917 14.0508 10.175C13.3841 10.0583 12.7008 10 12.0008 10C11.3008 10 10.6174 10.0583 9.95078 10.175C9.28412 10.2917 8.63411 10.45 8.00078 10.65V13.5C8.00078 13.6667 7.96745 13.8167 7.90078 13.95C7.83411 14.0833 7.73411 14.2 7.60078 14.3L4.70078 16.5C4.50078 16.65 4.27995 16.7167 4.03828 16.7C3.79661 16.6833 3.58411 16.5833 3.40078 16.4L1.10078 14.15C0.900781 13.95 0.800781 13.7167 0.800781 13.45C0.800781 13.1833 0.900781 12.95 1.10078 12.75C2.56745 11.1667 4.25911 9.97917 6.17578 9.1875C8.09245 8.39583 10.0341 8 12.0008 8Z" fill="white"/>
</svg>
