<svg width="16" height="15" viewBox="0 0 16 15" fill="none" xmlns="http://www.w3.org/2000/svg">
<path d="M5.50028 6.24867C5.50028 6.08291 5.56613 5.92394 5.68334 5.80673C5.80054 5.68952 5.95951 5.62367 6.12527 5.62367H9.87516C10.0409 5.62367 10.1999 5.68952 10.3171 5.80673C10.4343 5.92394 10.5001 6.08291 10.5001 6.24867C10.5001 6.41443 10.4343 6.5734 10.3171 6.69061C10.1999 6.80782 10.0409 6.87367 9.87516 6.87367H6.12527C5.95951 6.87367 5.80054 6.80782 5.68334 6.69061C5.56613 6.5734 5.50028 6.41443 5.50028 6.24867ZM6.12527 8.12367C5.95951 8.12367 5.80054 8.18952 5.68334 8.30673C5.56613 8.42394 5.50028 8.58291 5.50028 8.74867C5.50028 8.91443 5.56613 9.0734 5.68334 9.19061C5.80054 9.30782 5.95951 9.37367 6.12527 9.37367H8.62519C8.79095 9.37367 8.94991 9.30782 9.06712 9.19061C9.18433 9.0734 9.25017 8.91443 9.25017 8.74867C9.25017 8.58291 9.18433 8.42394 9.06712 8.30673C8.94991 8.18952 8.79095 8.12367 8.62519 8.12367H6.12527ZM0.500432 7.49867C0.500751 5.84748 1.04595 4.24254 2.05145 2.93283C3.05695 1.62312 4.46654 0.681848 6.06157 0.255026C7.65659 -0.171795 9.34789 -0.0603042 10.8731 0.572204C12.3983 1.20471 13.6721 2.32288 14.497 3.75325C15.3219 5.18362 15.6517 6.84624 15.4353 8.48318C15.2189 10.1201 14.4683 11.6399 13.3 12.8067C12.1318 13.9736 10.6111 14.7222 8.97394 14.9366C7.33677 15.151 5.67462 14.8191 4.24532 13.9924L1.32291 14.9674C1.21494 15.0035 1.09917 15.0093 0.98811 14.9844C0.877046 14.9595 0.774898 14.9047 0.692691 14.826C0.610485 14.7472 0.551342 14.6475 0.521645 14.5376C0.491948 14.4278 0.492825 14.3118 0.524181 14.2024L1.41415 11.0887C0.814198 9.98723 0.500041 8.75291 0.500432 7.49867ZM8.00021 1.24867C6.89672 1.24861 5.81288 1.54071 4.85887 2.09531C3.90486 2.6499 3.11469 3.4472 2.56868 4.40617C2.02268 5.36514 1.7403 6.45158 1.75026 7.55506C1.76021 8.65854 2.06215 9.73971 2.62537 10.6887C2.6687 10.762 2.6966 10.8434 2.70735 10.9278C2.71809 11.0123 2.71146 11.0981 2.68787 11.1799L2.05164 13.4049L4.12407 12.7149C4.21209 12.6855 4.30554 12.6761 4.39764 12.6874C4.48975 12.6986 4.57819 12.7302 4.65656 12.7799C5.47562 13.2983 6.40403 13.619 7.36839 13.7168C8.33275 13.8146 9.30664 13.6867 10.2131 13.3432C11.1195 12.9998 11.9336 12.4502 12.5911 11.738C13.2486 11.0257 13.7313 10.1703 14.0013 9.2393C14.2713 8.30831 14.321 7.3273 14.1465 6.37379C13.9721 5.42029 13.5782 4.52043 12.9961 3.74535C12.414 2.97027 11.6596 2.34122 10.7926 1.9079C9.92548 1.47459 8.96952 1.2489 8.00021 1.24867Z" fill="#80889B"/>
</svg>
