<svg width="20" height="20" viewBox="0 0 20 20" fill="none" xmlns="http://www.w3.org/2000/svg">
<path fill-rule="evenodd" clip-rule="evenodd" d="M12.5 1.0415H9.12C7.58833 1.0415 6.375 1.0415 5.42583 1.169C4.44917 1.30067 3.65833 1.57734 3.03417 2.20067C2.41083 2.82484 2.13417 3.61567 2.0025 4.59234C1.875 5.54234 1.875 6.75484 1.875 8.2865V13.3332C1.87485 14.0777 2.14055 14.7979 2.62425 15.3639C3.10795 15.93 3.77786 16.3047 4.51333 16.4207C4.6275 17.0573 4.84833 17.6007 5.29 18.0432C5.79167 18.5448 6.42333 18.7598 7.17333 18.8615C7.89583 18.9582 8.815 18.9582 9.95417 18.9582H12.5458C13.685 18.9582 14.6042 18.9582 15.3267 18.8615C16.0767 18.7598 16.7083 18.5448 17.21 18.0432C17.7117 17.5415 17.9267 16.9098 18.0283 16.1598C18.125 15.4373 18.125 14.5182 18.125 13.379V9.12067C18.125 7.9815 18.125 7.06234 18.0283 6.33984C17.9267 5.58984 17.7117 4.95817 17.21 4.4565C16.7675 4.01484 16.2242 3.794 15.5875 3.67984C15.4715 2.94436 15.0968 2.27445 14.5308 1.79075C13.9647 1.30705 13.2446 1.04135 12.5 1.0415ZM14.275 3.559C14.1483 3.189 13.909 2.86789 13.5908 2.64061C13.2725 2.41333 12.8911 2.29127 12.5 2.2915H9.16667C7.5775 2.2915 6.44917 2.29317 5.59167 2.40817C4.75417 2.52067 4.27083 2.73234 3.91833 3.08484C3.56583 3.43734 3.35417 3.92067 3.24167 4.75817C3.12667 5.61567 3.125 6.744 3.125 8.33317V13.3332C3.12476 13.7243 3.24683 14.1057 3.4741 14.4239C3.70138 14.7422 4.0225 14.9815 4.3925 15.1082C4.375 14.5998 4.375 14.0248 4.375 13.379V9.12067C4.375 7.9815 4.375 7.06234 4.4725 6.33984C4.5725 5.58984 4.78917 4.95817 5.29 4.4565C5.79167 3.95484 6.42333 3.73984 7.17333 3.639C7.89583 3.5415 8.815 3.5415 9.95417 3.5415H12.5458C13.1917 3.5415 13.7667 3.5415 14.275 3.559ZM6.17333 5.3415C6.40417 5.11067 6.7275 4.96067 7.34 4.87817C7.96833 4.794 8.80333 4.79234 9.99917 4.79234H12.4992C13.695 4.79234 14.5292 4.794 15.1592 4.87817C15.7708 4.96067 16.0942 5.1115 16.325 5.3415C16.5558 5.57234 16.7058 5.89567 16.7883 6.50817C16.8725 7.1365 16.8742 7.9715 16.8742 9.16734V13.334C16.8742 14.5298 16.8725 15.364 16.7883 15.994C16.7058 16.6057 16.555 16.929 16.325 17.1598C16.0942 17.3907 15.7708 17.5407 15.1583 17.6232C14.5292 17.7073 13.695 17.709 12.4992 17.709H9.99917C8.80333 17.709 7.96833 17.7073 7.33917 17.6232C6.7275 17.5407 6.40417 17.3898 6.17333 17.1598C5.9425 16.929 5.7925 16.6057 5.71 15.9932C5.62583 15.364 5.62417 14.5298 5.62417 13.334V9.16734C5.62417 7.9715 5.62583 7.1365 5.71 6.50734C5.7925 5.89567 5.94333 5.57234 6.17333 5.3415Z" fill="#4285F4"/>
</svg>
