
<svg width="15" className="w-5 h-5 text-[#80889B] group-hover:text-[#ED5C5B]" 
 height="15" viewBox="0 0 15 15"  xmlns="http://www.w3.org/2000/svg">
<path d="M6 3H9C9 2.60218 8.84196 2.22064 8.56066 1.93934C8.27935 1.65804 7.89782 1.5 7.5 1.5C7.10218 1.5 6.72064 1.65804 6.43934 1.93934C6.15804 2.22064 6 2.60218 6 3ZM4.5 3C4.5 2.20435 4.81607 1.44129 5.37868 0.87868C5.94129 0.316071 6.70435 0 7.5 0C8.29565 0 9.05871 0.316071 9.62132 0.87868C10.1839 1.44129 10.5 2.20435 10.5 3H14.25C14.4489 3 14.6397 3.07902 14.7803 3.21967C14.921 3.36032 15 3.55109 15 3.75C15 3.94891 14.921 4.13968 14.7803 4.28033C14.6397 4.42098 14.4489 4.5 14.25 4.5H13.5885L12.924 12.255C12.8601 13.0038 12.5175 13.7014 11.9639 14.2098C11.4103 14.7181 10.6861 15.0001 9.9345 15H5.0655C4.31393 15.0001 3.58971 14.7181 3.03611 14.2098C2.48252 13.7014 2.13988 13.0038 2.076 12.255L1.4115 4.5H0.75C0.551088 4.5 0.360322 4.42098 0.21967 4.28033C0.0790176 4.13968 0 3.94891 0 3.75C0 3.55109 0.0790176 3.36032 0.21967 3.21967C0.360322 3.07902 0.551088 3 0.75 3H4.5ZM9.75 7.5C9.75 7.30109 9.67098 7.11032 9.53033 6.96967C9.38968 6.82902 9.19891 6.75 9 6.75C8.80109 6.75 8.61032 6.82902 8.46967 6.96967C8.32902 7.11032 8.25 7.30109 8.25 7.5V10.5C8.25 10.6989 8.32902 10.8897 8.46967 11.0303C8.61032 11.171 8.80109 11.25 9 11.25C9.19891 11.25 9.38968 11.171 9.53033 11.0303C9.67098 10.8897 9.75 10.6989 9.75 10.5V7.5ZM6 6.75C6.19891 6.75 6.38968 6.82902 6.53033 6.96967C6.67098 7.11032 6.75 7.30109 6.75 7.5V10.5C6.75 10.6989 6.67098 10.8897 6.53033 11.0303C6.38968 11.171 6.19891 11.25 6 11.25C5.80109 11.25 5.61032 11.171 5.46967 11.0303C5.32902 10.8897 5.25 10.6989 5.25 10.5V7.5C5.25 7.30109 5.32902 7.11032 5.46967 6.96967C5.61032 6.82902 5.80109 6.75 6 6.75ZM3.57 12.1275C3.60195 12.5021 3.77338 12.851 4.05033 13.1051C4.32729 13.3593 4.68959 13.5002 5.0655 13.5H9.9345C10.3102 13.4999 10.6721 13.3588 10.9487 13.1046C11.2254 12.8505 11.3966 12.5018 11.4285 12.1275L12.0825 4.5H2.9175L3.57 12.1275Z" fill="currentColor"/>
</svg>
