<svg width="18" height="18" viewBox="0 0 18 18" fill="none" xmlns="http://www.w3.org/2000/svg">
<path fill-rule="evenodd" clip-rule="evenodd" d="M2 5.3999C2 4.49819 2.3582 3.63341 2.99581 2.99581C3.63341 2.3582 4.49819 2 5.3999 2H9C9.18565 2 9.3637 2.07375 9.49497 2.20503C9.62625 2.3363 9.7 2.51435 9.7 2.7C9.7 2.88565 9.62625 3.0637 9.49497 3.19497C9.3637 3.32625 9.18565 3.4 9 3.4H5.3999C4.86949 3.4 4.36081 3.6107 3.98576 3.98576C3.6107 4.36081 3.4 4.86949 3.4 5.3999V12.6001C3.4 13.1305 3.6107 13.6392 3.98576 14.0142C4.36081 14.3893 4.86949 14.6 5.3999 14.6H12.6001C13.1305 14.6 13.6392 14.3893 14.0142 14.0142C14.3893 13.6392 14.6 13.1305 14.6 12.6001V9C14.6 8.81435 14.6737 8.6363 14.805 8.50503C14.9363 8.37375 15.1143 8.3 15.3 8.3C15.4857 8.3 15.6637 8.37375 15.795 8.50503C15.9263 8.6363 16 8.81435 16 9V12.6001C16 13.5018 15.6418 14.3666 15.0042 15.0042C14.3666 15.6418 13.5018 16 12.6001 16H5.3999C4.49819 16 3.63341 15.6418 2.99581 15.0042C2.3582 14.3666 2 13.5018 2 12.6001V5.3999Z" fill="#80889B"/>
<path fill-rule="evenodd" clip-rule="evenodd" d="M11.1891 9.8532L9.64562 10.7842L8.92252 9.5851L10.466 8.6541L10.4681 8.6527C10.5273 8.61707 10.5818 8.57428 10.6305 8.5253L14.1375 5.0001C14.1726 4.96468 14.2065 4.92803 14.239 4.8902C14.4707 4.62 14.8137 4.0852 14.3986 3.668C14.0479 3.3152 13.5453 3.6484 13.2198 3.9347C13.1325 4.01167 13.0484 4.09224 12.9678 4.1762L12.944 4.2L9.48602 7.6755C9.40392 7.75712 9.33957 7.85483 9.29702 7.9625L8.72022 9.4136C8.70928 9.44091 8.70722 9.47096 8.71433 9.4995C8.72144 9.52805 8.73736 9.55363 8.75983 9.57261C8.7823 9.59159 8.81018 9.60301 8.83951 9.60526C8.86884 9.6075 8.89743 9.60045 8.92252 9.5851L9.64562 10.7842C8.38212 11.5458 6.87362 10.2662 7.41962 8.8956L7.99712 7.4452C8.10956 7.16177 8.27868 6.90428 8.49412 6.6885L11.9514 3.2123L11.9717 3.192C12.0746 3.087 12.4204 2.7328 12.8397 2.478C13.0686 2.3401 13.434 2.1574 13.8855 2.1224C14.4035 2.0811 14.9565 2.2442 15.3905 2.6803C15.7227 3.00845 15.9316 3.44109 15.982 3.9053C16.0167 4.26713 15.9614 4.63191 15.821 4.9672C15.618 5.4691 15.2792 5.838 15.1301 5.9871L11.6231 9.5123C11.4925 9.64343 11.3478 9.75707 11.1891 9.8532ZM14.3062 4.865C14.3062 4.865 14.3034 4.8671 14.2971 4.8692L14.3062 4.865Z" fill="#80889B"/>
</svg>
