<svg width="21" height="21" viewBox="0 0 21 21" fill="none" xmlns="http://www.w3.org/2000/svg">
<g clip-path="url(#clip0_361_10287)">
<path d="M20.1681 10.8573C20.167 10.038 20.0981 9.44012 19.9499 8.82025L10.375 8.83392L10.3803 12.5322L16.0006 12.5242C15.8886 13.4435 15.2787 14.8285 13.9202 15.7605L13.9014 15.8843L16.932 18.1718L17.1418 18.192C19.0656 16.4508 20.1725 13.8913 20.1681 10.8573Z" fill="#4285F4"/>
<path d="M10.3913 20.6157C13.1448 20.6117 15.4551 19.7226 17.1413 18.1921L13.9197 15.7606C13.0594 16.3487 11.9042 16.7601 10.3858 16.7622C7.689 16.7661 5.39761 15.031 4.57825 12.6293L4.45867 12.6394L1.31411 15.0246L1.2731 15.1365C2.95477 18.3895 6.40268 20.6214 10.3913 20.6157Z" fill="#34A853"/>
<path d="M4.57862 12.6282C4.36244 12.0084 4.2369 11.3442 4.23592 10.6577C4.23494 9.9711 4.35859 9.30657 4.56166 8.68621L4.55577 8.55415L1.36491 6.13978L1.2607 6.1884C0.571449 7.5403 0.177016 9.05789 0.179309 10.6635C0.181602 12.269 0.580368 13.7854 1.27348 15.1353L4.57862 12.6282Z" fill="#FBBC05"/>
<path d="M10.3688 4.53694C12.2838 4.5342 13.5767 5.34068 14.3142 6.01512L17.1884 3.26491C15.4185 1.66186 13.1168 0.679652 10.3633 0.683584C6.37466 0.68928 2.93314 2.93091 1.26077 6.18873L4.56174 8.68653C5.38556 6.28253 7.67198 4.54079 10.3688 4.53694Z" fill="#EB4335"/>
</g>
<defs>
<clipPath id="clip0_361_10287">
<rect width="20" height="20" fill="white" transform="translate(0.164062 0.69812) rotate(-0.0818226)"/>
</clipPath>
</defs>
</svg>
