<svg width="21" height="20" viewBox="0 0 21 20" fill="none" xmlns="http://www.w3.org/2000/svg">
<path d="M5 6.49903C5 5.32082 5 4.73172 5.36667 4.36652C5.73133 4 6.32067 4 7.5 4C8.67933 4 9.268 4 9.63333 4.36652C10 4.73172 10 5.32082 10 6.49903C10 7.67724 10 8.26634 9.63333 8.63153C9.268 8.99806 8.67867 8.99806 7.5 8.99806C6.32133 8.99806 5.732 8.99806 5.36667 8.63153C5 8.26701 5 7.6779 5 6.49903ZM5 13.501C5 12.3228 5 11.7337 5.36667 11.3685C5.732 11.0019 6.32133 11.0019 7.5 11.0019C8.67867 11.0019 9.268 11.0019 9.63333 11.3685C10 11.7337 10 12.3228 10 13.501C10 14.6792 10 15.2683 9.63333 15.6335C9.268 16 8.67867 16 7.5 16C6.32133 16 5.732 16 5.36667 15.6335C5 15.269 5 14.6792 5 13.501ZM12 6.49903C12 5.32082 12 4.73172 12.3667 4.36652C12.732 4 13.3213 4 14.5 4C15.6787 4 16.268 4 16.6333 4.36652C17 4.73172 17 5.32082 17 6.49903C17 7.67724 17 8.26634 16.6333 8.63153C16.268 8.99806 15.6787 8.99806 14.5 8.99806C13.3213 8.99806 12.732 8.99806 12.3667 8.63153C12 8.26634 12 7.67724 12 6.49903ZM12 13.501C12 12.3228 12 11.7337 12.3667 11.3685C12.732 11.0019 13.3213 11.0019 14.5 11.0019C15.6787 11.0019 16.268 11.0019 16.6333 11.3685C17 11.7337 17 12.3228 17 13.501C17 14.6792 17 15.2683 16.6333 15.6335C16.268 16 15.6787 16 14.5 16C13.3213 16 12.732 16 12.3667 15.6335C12 15.2683 12 14.6792 12 13.501Z" stroke="white" stroke-width="1.5" stroke-linecap="round" stroke-linejoin="round"/>
</svg>
