<svg width="16" height="15" viewBox="0 0 16 15" fill="none" xmlns="http://www.w3.org/2000/svg">
<path d="M7.9625 12C8.225 12 8.447 11.9092 8.6285 11.7277C8.81 11.5462 8.9005 11.3245 8.9 11.0625C8.8995 10.8005 8.809 10.5785 8.6285 10.3965C8.448 10.2145 8.226 10.124 7.9625 10.125C7.699 10.126 7.47725 10.2168 7.29725 10.3973C7.11725 10.5778 7.0265 10.7995 7.025 11.0625C7.0235 11.3255 7.11425 11.5475 7.29725 11.7285C7.48025 11.9095 7.702 12 7.9625 12ZM8 15C6.9625 15 5.9875 14.803 5.075 14.409C4.1625 14.015 3.36875 13.4808 2.69375 12.8063C2.01875 12.1318 1.4845 11.338 1.091 10.425C0.697501 9.512 0.500501 8.537 0.500001 7.5C0.499501 6.463 0.696501 5.488 1.091 4.575C1.4855 3.662 2.01975 2.86825 2.69375 2.19375C3.36775 1.51925 4.1615 0.985 5.075 0.591C5.9885 0.197 6.9635 0 8 0C9.0365 0 10.0115 0.197 10.925 0.591C11.8385 0.985 12.6323 1.51925 13.3063 2.19375C13.9803 2.86825 14.5148 3.662 14.9098 4.575C15.3048 5.488 15.5015 6.463 15.5 7.5C15.4985 8.537 15.3015 9.512 14.909 10.425C14.5165 11.338 13.9823 12.1318 13.3063 12.8063C12.6303 13.4808 11.8365 14.0152 10.925 14.4097C10.0135 14.8042 9.0385 15.001 8 15ZM8 13.5C9.675 13.5 11.0938 12.9187 12.2563 11.7562C13.4187 10.5937 14 9.175 14 7.5C14 5.825 13.4187 4.40625 12.2563 3.24375C11.0938 2.08125 9.675 1.5 8 1.5C6.325 1.5 4.90625 2.08125 3.74375 3.24375C2.58125 4.40625 2 5.825 2 7.5C2 9.175 2.58125 10.5937 3.74375 11.7562C4.90625 12.9187 6.325 13.5 8 13.5ZM8.075 4.275C8.3875 4.275 8.6595 4.375 8.891 4.575C9.1225 4.775 9.238 5.025 9.2375 5.325C9.2375 5.6 9.15325 5.84375 8.98475 6.05625C8.81625 6.26875 8.6255 6.46875 8.4125 6.65625C8.125 6.90625 7.872 7.18125 7.6535 7.48125C7.435 7.78125 7.3255 8.11875 7.325 8.49375C7.325 8.66875 7.39075 8.81575 7.52225 8.93475C7.65375 9.05375 7.80675 9.113 7.98125 9.1125C8.16875 9.1125 8.32825 9.05 8.45975 8.925C8.59125 8.8 8.6755 8.64375 8.7125 8.45625C8.7625 8.19375 8.875 7.9595 9.05 7.7535C9.225 7.5475 9.4125 7.3505 9.6125 7.1625C9.9 6.8875 10.147 6.5875 10.3535 6.2625C10.56 5.9375 10.663 5.575 10.6625 5.175C10.6625 4.5375 10.4033 4.01575 9.88475 3.60975C9.36625 3.20375 8.763 3.0005 8.075 3C7.6 3 7.147 3.1 6.716 3.3C6.285 3.5 5.95675 3.80625 5.73125 4.21875C5.64375 4.36875 5.61575 4.52825 5.64725 4.69725C5.67875 4.86625 5.763 4.99425 5.9 5.08125C6.075 5.18125 6.25625 5.2125 6.44375 5.175C6.63125 5.1375 6.7875 5.03125 6.9125 4.85625C7.05 4.66875 7.222 4.525 7.4285 4.425C7.635 4.325 7.8505 4.275 8.075 4.275Z" fill="#80889B"/>
</svg>
