<svg width="18" height="18" viewBox="0 0 18 18" fill="none" xmlns="http://www.w3.org/2000/svg">
<path d="M9 2.4375C9.14918 2.4375 9.29226 2.49676 9.39775 2.60225C9.50324 2.70774 9.5625 2.85082 9.5625 3C9.5625 3.14918 9.50324 3.29226 9.39775 3.39775C9.29226 3.50324 9.14918 3.5625 9 3.5625C7.55789 3.5625 6.17484 4.13538 5.15511 5.15511C4.13538 6.17484 3.5625 7.55789 3.5625 9C3.5625 10.4421 4.13538 11.8252 5.15511 12.8449C6.17484 13.8646 7.55789 14.4375 9 14.4375C9.14918 14.4375 9.29226 14.4968 9.39775 14.6023C9.50324 14.7077 9.5625 14.8508 9.5625 15C9.5625 15.1492 9.50324 15.2923 9.39775 15.3977C9.29226 15.5032 9.14918 15.5625 9 15.5625C7.25952 15.5625 5.59032 14.8711 4.35961 13.6404C3.1289 12.4097 2.4375 10.7405 2.4375 9C2.4375 7.25952 3.1289 5.59032 4.35961 4.35961C5.59032 3.1289 7.25952 2.4375 9 2.4375Z" fill="#ED5C5B"/>
<path d="M12.3525 7.14739C12.2531 7.04075 12.199 6.89972 12.2016 6.75399C12.2042 6.60827 12.2632 6.46923 12.3663 6.36617C12.4693 6.26311 12.6084 6.20407 12.7541 6.2015C12.8998 6.19893 13.0409 6.25303 13.1475 6.35239L15.3975 8.60239C15.5028 8.70785 15.562 8.85082 15.562 8.99989C15.562 9.14895 15.5028 9.29192 15.3975 9.39739L13.1475 11.6474C13.096 11.7027 13.0339 11.747 12.9649 11.7777C12.8959 11.8085 12.8214 11.825 12.7459 11.8263C12.6704 11.8277 12.5953 11.8138 12.5253 11.7855C12.4553 11.7572 12.3916 11.7151 12.3382 11.6617C12.2848 11.6083 12.2427 11.5446 12.2144 11.4746C12.1861 11.4045 12.1722 11.3295 12.1736 11.254C12.1749 11.1785 12.1914 11.104 12.2222 11.035C12.2529 10.966 12.2972 10.9039 12.3525 10.8524L13.6425 9.56239H7.5C7.35082 9.56239 7.20774 9.50312 7.10225 9.39763C6.99676 9.29214 6.9375 9.14907 6.9375 8.99989C6.9375 8.8507 6.99676 8.70763 7.10225 8.60214C7.20774 8.49665 7.35082 8.43739 7.5 8.43739H13.6425L12.3525 7.14739Z" fill="#ED5C5B"/>
</svg>
