<svg width="18" height="18" viewBox="0 0 18 18" fill="none" xmlns="http://www.w3.org/2000/svg">
<path d="M9 2.4375C9.14918 2.4375 9.29226 2.49676 9.39775 2.60225C9.50324 2.70774 9.5625 2.85082 9.5625 3C9.5625 3.14918 9.50324 3.29226 9.39775 3.39775C9.29226 3.50324 9.14918 3.5625 9 3.5625C7.55789 3.5625 6.17484 4.13538 5.15511 5.15511C4.13538 6.17484 3.5625 7.55789 3.5625 9C3.5625 10.4421 4.13538 11.8252 5.15511 12.8449C6.17484 13.8646 7.55789 14.4375 9 14.4375C9.14918 14.4375 9.29226 14.4968 9.39775 14.6023C9.50324 14.7077 9.5625 14.8508 9.5625 15C9.5625 15.1492 9.50324 15.2923 9.39775 15.3977C9.29226 15.5032 9.14918 15.5625 9 15.5625C7.25952 15.5625 5.59032 14.8711 4.35961 13.6404C3.1289 12.4097 2.4375 10.7405 2.4375 9C2.4375 7.25952 3.1289 5.59032 4.35961 4.35961C5.59032 3.1289 7.25952 2.4375 9 2.4375Z" fill="#ED5C5B"/>
<path d="M12.3525 7.14751C12.2531 7.04088 12.199 6.89984 12.2016 6.75412C12.2042 6.60839 12.2632 6.46935 12.3663 6.36629C12.4693 6.26323 12.6084 6.2042 12.7541 6.20163C12.8998 6.19905 13.0409 6.25315 13.1475 6.35251L15.3975 8.60251C15.5028 8.70798 15.562 8.85094 15.562 9.00001C15.562 9.14907 15.5028 9.29204 15.3975 9.39751L13.1475 11.6475C13.096 11.7028 13.0339 11.7471 12.9649 11.7778C12.8959 11.8086 12.8214 11.8251 12.7459 11.8265C12.6704 11.8278 12.5953 11.8139 12.5253 11.7856C12.4553 11.7573 12.3916 11.7152 12.3382 11.6618C12.2848 11.6084 12.2427 11.5447 12.2144 11.4747C12.1861 11.4047 12.1722 11.3296 12.1736 11.2541C12.1749 11.1786 12.1914 11.1041 12.2222 11.0351C12.2529 10.9661 12.2972 10.904 12.3525 10.8525L13.6425 9.56251H7.5C7.35082 9.56251 7.20774 9.50324 7.10225 9.39775C6.99676 9.29227 6.9375 9.14919 6.9375 9.00001C6.9375 8.85082 6.99676 8.70775 7.10225 8.60226C7.20774 8.49677 7.35082 8.43751 7.5 8.43751H13.6425L12.3525 7.14751Z" fill="#ED5C5B"/>
</svg>
