<svg width="18" height="17" viewBox="0 0 18 17" fill="none" xmlns="http://www.w3.org/2000/svg">
<path d="M1.5 1L16.5 16M3.84375 7.09375C3.84375 8.46127 4.387 9.77279 5.35398 10.7398C6.32096 11.7068 7.63248 12.25 9 12.25V16M9 16H5.25M9 16H12.75M6.65625 5.6875V3.34375C6.65625 2.72215 6.90318 2.12601 7.34272 1.68647C7.78226 1.24693 8.3784 1 9 1C9.6216 1 10.2177 1.24693 10.6573 1.68647C11.0968 2.12601 11.3438 2.72215 11.3438 3.34375V7.09375C11.3439 7.5499 11.2109 7.99618 10.9611 8.37786C10.7113 8.75954 10.3556 9.06004 9.9375 9.2425M14.1562 7.09375C14.1562 8.90312 13.4034 10.3966 11.9916 11.3162" stroke="#80889B" stroke-width="1.5" stroke-linecap="round" stroke-linejoin="round"/>
</svg>
