<svg width="12" height="12" viewBox="0 0 12 12" fill="none" xmlns="http://www.w3.org/2000/svg">
<path d="M5.16667 6.83333H1C0.763889 6.83333 0.566112 6.75333 0.406667 6.59333C0.247223 6.43333 0.167223 6.23555 0.166667 5.99999C0.166111 5.76444 0.246112 5.56666 0.406667 5.40666C0.567223 5.24666 0.765 5.16666 1 5.16666H5.16667V0.999993C5.16667 0.763882 5.24667 0.566104 5.40667 0.406659C5.56667 0.247215 5.76444 0.167215 6 0.166659C6.23556 0.166104 6.43361 0.246104 6.59417 0.406659C6.75472 0.567215 6.83444 0.764993 6.83333 0.999993V5.16666H11C11.2361 5.16666 11.4342 5.24666 11.5942 5.40666C11.7542 5.56666 11.8339 5.76444 11.8333 5.99999C11.8328 6.23555 11.7528 6.4336 11.5933 6.59416C11.4339 6.75471 11.2361 6.83444 11 6.83333H6.83333V11C6.83333 11.2361 6.75333 11.4342 6.59333 11.5942C6.43333 11.7542 6.23556 11.8339 6 11.8333C5.76444 11.8328 5.56667 11.7528 5.40667 11.5933C5.24667 11.4339 5.16667 11.2361 5.16667 11V6.83333Z" fill="white"/>
</svg>
