<svg width="20" height="20" viewBox="0 0 20 20" fill="none" xmlns="http://www.w3.org/2000/svg">
<path d="M12.0008 7.99998L9.00084 11M18.2888 1.03098C18.3837 0.99823 18.4859 0.992841 18.5837 1.01542C18.6815 1.03801 18.771 1.08765 18.8419 1.15869C18.9129 1.22972 18.9624 1.31927 18.9848 1.41711C19.0073 1.51495 19.0017 1.61713 18.9688 1.71198L13.0448 18.642C13.0094 18.7432 12.9443 18.8314 12.8581 18.8952C12.772 18.959 12.6686 18.9954 12.5614 18.9997C12.4543 19.004 12.3483 18.976 12.2573 18.9194C12.1662 18.8627 12.0943 18.78 12.0508 18.682L8.83184 11.44C8.77768 11.3195 8.68127 11.2231 8.56084 11.169L1.31884 7.94898C1.22113 7.90535 1.13875 7.83343 1.08234 7.74251C1.02593 7.65159 0.99808 7.54584 1.00239 7.43892C1.00669 7.33201 1.04296 7.22884 1.1065 7.14275C1.17004 7.05666 1.25794 6.9916 1.35884 6.95598L18.2888 1.03098Z" stroke="white" stroke-width="1.5" stroke-linecap="round" stroke-linejoin="round"/>
</svg>
