<svg width="16" height="15" viewBox="0 0 16 15" fill="none" xmlns="http://www.w3.org/2000/svg">
<path d="M13.3882 5.28803L13.1411 5.15028L13.0648 5.10706C12.8807 4.99658 12.7256 4.8438 12.6124 4.6614C12.6002 4.64316 12.5894 4.62358 12.5678 4.58577C12.4222 4.35209 12.3515 4.07949 12.3652 3.80451L12.3693 3.51753C12.3774 3.05836 12.3814 2.82742 12.3166 2.6208C12.2593 2.43695 12.1632 2.2675 12.035 2.12381C11.8905 1.96175 11.69 1.84561 11.2882 1.61468L10.9546 1.42223C10.5549 1.19197 10.3543 1.0765 10.1416 1.03261C9.95371 0.993725 9.75965 0.995336 9.5724 1.03734C9.36104 1.08461 9.1632 1.20345 8.76818 1.43979L8.76615 1.44114L8.52711 1.58361C8.4893 1.60657 8.46972 1.61738 8.45081 1.62818C8.26309 1.73284 8.05376 1.79024 7.83836 1.79699C7.81675 1.79834 7.79447 1.79834 7.75058 1.79834L7.66279 1.79767C7.44732 1.7908 7.23663 1.73246 7.04832 1.62751C7.02941 1.61738 7.01118 1.6059 6.97337 1.58294L6.7323 1.43844C6.33458 1.1994 6.13538 1.08055 5.92268 1.03261C5.73473 0.990541 5.53995 0.989159 5.35142 1.02856C5.13804 1.07313 4.93817 1.18927 4.53774 1.42155L4.53572 1.42223L4.2062 1.61333L4.20282 1.61603C3.80577 1.84561 3.60658 1.96175 3.46342 2.12314C3.33585 2.26656 3.24032 2.43552 3.1832 2.61877C3.11905 2.82607 3.12242 3.05701 3.13053 3.51888L3.13525 3.80518C3.13525 3.84907 3.13728 3.87068 3.1366 3.89161C3.13311 4.13694 3.06284 4.37669 2.93335 4.58509C2.91107 4.62291 2.90094 4.64181 2.88946 4.65937C2.77561 4.84315 2.6193 4.99692 2.43367 5.10774L2.35804 5.15028L2.11428 5.28533C1.70778 5.51018 1.50453 5.62295 1.35732 5.78366C1.22645 5.92535 1.12744 6.09343 1.06697 6.27659C0.999442 6.48389 0.999442 6.7155 1.00012 7.18007L1.00147 7.56024C1.00214 8.02143 1.00349 8.25169 1.07169 8.45764C1.13192 8.63967 1.23021 8.80678 1.36002 8.94787C1.50723 9.10723 1.70845 9.21932 2.11158 9.44351L2.35332 9.57788C2.39451 9.60084 2.41544 9.61164 2.43502 9.6238C2.64663 9.75065 2.81944 9.93304 2.9347 10.1512L2.97995 10.2322C3.094 10.4475 3.14767 10.6897 3.13525 10.9331L3.13053 11.2079C3.12242 11.6712 3.11905 11.9034 3.18387 12.1107C3.24127 12.2944 3.33715 12.4639 3.46545 12.6077C3.60995 12.7698 3.81118 12.8852 4.21227 13.1169L4.54585 13.3093C4.94627 13.5396 5.14614 13.655 5.35885 13.6989C5.54677 13.7378 5.74083 13.7362 5.92808 13.6942C6.14011 13.6469 6.33796 13.5281 6.73433 13.2904L6.97337 13.1472L7.04967 13.1027C7.23739 12.9987 7.44671 12.9406 7.66212 12.9339L7.7499 12.9332H7.83768C8.05241 12.9399 8.26309 12.9987 8.45216 13.1034L8.51428 13.1405L8.76818 13.2931C9.16657 13.5321 9.3651 13.651 9.5778 13.6982C9.76566 13.7408 9.96043 13.7426 10.1491 13.7036C10.3618 13.6591 10.563 13.5423 10.9634 13.31L11.2977 13.1162C11.6947 12.8852 11.8939 12.7698 12.0371 12.6084C12.1654 12.4646 12.2599 12.2958 12.3173 12.1128C12.3814 11.9068 12.3781 11.6779 12.37 11.2228L12.3645 10.9257V10.8399C12.3677 10.5944 12.4378 10.3544 12.5671 10.1458L12.611 10.0715C12.7249 9.8877 12.8812 9.73394 13.0668 9.62312L13.1411 9.58193L13.1424 9.58126L13.3862 9.44621C13.7927 9.22067 13.996 9.10858 14.1438 8.94787C14.2748 8.80607 14.3734 8.63726 14.4335 8.45494C14.501 8.24899 14.501 8.01806 14.4997 7.55889L14.4983 7.1713C14.4977 6.7101 14.497 6.47917 14.4288 6.27321C14.3683 6.09137 14.2698 5.92449 14.1398 5.78366C13.9932 5.6243 13.792 5.51221 13.3896 5.2887L13.3882 5.28803Z" stroke="#80889B" stroke-width="1.4" stroke-linecap="round" stroke-linejoin="round"/>
<path d="M5.05078 7.36603C5.05078 8.08238 5.33535 8.76939 5.84188 9.27592C6.34842 9.78246 7.03543 10.067 7.75178 10.067C8.46812 10.067 9.15513 9.78246 9.66167 9.27592C10.1682 8.76939 10.4528 8.08238 10.4528 7.36603C10.4528 6.64968 10.1682 5.96268 9.66167 5.45614C9.15513 4.94961 8.46812 4.66504 7.75178 4.66504C7.03543 4.66504 6.34842 4.94961 5.84188 5.45614C5.33535 5.96268 5.05078 6.64968 5.05078 7.36603Z" stroke="#80889B" stroke-width="1.4" stroke-linecap="round" stroke-linejoin="round"/>
</svg>
