<svg width="18" height="18" viewBox="0 0 18 18" fill="none" xmlns="http://www.w3.org/2000/svg">
<path d="M9 9C10.6569 9 12 7.65685 12 6C12 4.34315 10.6569 3 9 3C7.34315 3 6 4.34315 6 6C6 7.65685 7.34315 9 9 9Z" stroke="#80889B" stroke-width="1.5" stroke-linecap="round"/>
<path fill-rule="evenodd" clip-rule="evenodd" d="M9.99523 11.307C9.66623 11.269 9.33448 11.25 8.99998 11.25C7.55998 11.25 6.14548 11.6055 4.97323 12.2797C3.80173 12.9547 2.91073 13.9275 2.49823 15.0833C2.43734 15.269 2.45142 15.4713 2.53746 15.6469C2.6235 15.8224 2.77471 15.9575 2.95885 16.0232C3.143 16.0889 3.34553 16.0801 3.52329 15.9987C3.70104 15.9172 3.83998 15.7696 3.91048 15.5873C4.18198 14.8298 4.79773 14.112 5.72173 13.5803C6.48223 13.1423 7.39798 12.8625 8.36848 12.7778C8.49166 12.4142 8.7058 12.0882 8.99054 11.8308C9.27527 11.5733 9.62114 11.393 9.99523 11.307Z" fill="#80889B"/>
<path d="M13.5 10.5V16.5M16.5 13.5H10.5" stroke="#80889B" stroke-width="1.5" stroke-linecap="round"/>
</svg>
