<svg width="16" height="14" viewBox="0 0 16 14" fill="none" xmlns="http://www.w3.org/2000/svg">
<path d="M5.99922 0.333344C7.29434 0.333144 8.54528 0.804214 9.51857 1.65864C10.4919 2.51306 11.121 3.69244 11.2886 4.97668L12.7886 7.33601C12.8872 7.49134 12.8672 7.72268 12.6386 7.82134L11.3326 8.38001V10.3333C11.3326 10.687 11.1921 11.0261 10.942 11.2762C10.692 11.5262 10.3528 11.6667 9.99922 11.6667H8.66655L8.66589 13.6667H2.66589V11.204C2.66589 10.4173 2.37522 9.67268 1.83655 9.00068C1.20839 8.21636 0.814584 7.27054 0.700501 6.27217C0.586419 5.27381 0.756704 4.26353 1.19174 3.35772C1.62677 2.45191 2.30885 1.68743 3.1594 1.15235C4.00995 0.617274 4.99436 0.333368 5.99922 0.333344ZM5.99922 1.66668C5.24561 1.66665 4.50732 1.87951 3.86939 2.28074C3.23147 2.68198 2.71988 3.25526 2.39354 3.93455C2.0672 4.61384 1.9394 5.3715 2.02485 6.12026C2.11031 6.86901 2.40555 7.57839 2.87655 8.16668C3.60589 9.07601 3.99922 10.1113 3.99922 11.204V12.3333H7.33255L7.33389 10.3333H9.99922V7.50134L11.0326 7.05868L10.0039 5.44201L9.96589 5.14734C9.83982 4.18456 9.36784 3.3005 8.63798 2.66007C7.90812 2.01963 6.97023 1.66655 5.99922 1.66668ZM12.9926 10.3287L14.1019 11.0687C14.9066 9.86456 15.335 8.44828 15.3326 7.00001C15.3321 6.54446 15.2919 6.10001 15.2119 5.66668L13.9166 6.00001C13.9712 6.32579 13.9988 6.65912 13.9992 7.00001C14.0012 8.18485 13.6508 9.34352 12.9926 10.3287Z" fill="#80889B"/>
</svg>
